<svg width="140" height="49" viewBox="0 0 140 49" fill="none" xmlns="http://www.w3.org/2000/svg">
<g filter="url(#filter0_b_304_836)">
<path d="M16 24.5C16 17.8726 21.3726 12.5 28 12.5C34.6274 12.5 40 17.8726 40 24.5C40 31.1274 34.6274 36.5 28 36.5C21.3726 36.5 16 31.1274 16 24.5Z" fill="white"/>
</g>
<path d="M24.9927 26.2144V22.68C24.9927 21.1734 24.9927 20.42 25.4834 20.1296C25.9741 19.8392 26.6345 20.2018 27.9552 20.9269L30.9846 22.5901C32.3231 23.3249 32.9924 23.6924 33.0071 24.2668C33.0218 24.8412 32.3722 25.2424 31.0731 26.0448L28.0437 27.916C26.6936 28.7499 26.0185 29.1668 25.5056 28.8807C24.9927 28.5947 24.9927 27.8012 24.9927 26.2144Z" fill="#1D2130"/>
<path d="M51.3047 25.7734V30H49.3281V18.625H53.6797C54.9505 18.625 55.9583 18.9557 56.7031 19.6172C57.4531 20.2786 57.8281 21.1536 57.8281 22.2422C57.8281 23.3568 57.4609 24.224 56.7266 24.8438C55.9974 25.4635 54.974 25.7734 53.6562 25.7734H51.3047ZM51.3047 24.1875H53.6797C54.3828 24.1875 54.9193 24.0234 55.2891 23.6953C55.6589 23.362 55.8438 22.8828 55.8438 22.2578C55.8438 21.6432 55.6562 21.1536 55.2812 20.7891C54.9062 20.4193 54.3906 20.2292 53.7344 20.2188H51.3047V24.1875ZM61.3984 30H59.5V18L61.3984 18V30ZM68.5234 30C68.4401 29.8385 68.3672 29.5755 68.3047 29.2109C67.7005 29.8411 66.9609 30.1563 66.0859 30.1563C65.237 30.1563 64.5443 29.9141 64.0078 29.4297C63.4714 28.9453 63.2031 28.3464 63.2031 27.6328C63.2031 26.7318 63.5365 26.0417 64.2031 25.5625C64.875 25.0781 65.8333 24.8359 67.0781 24.8359H68.2422V24.2813C68.2422 23.8438 68.1198 23.4948 67.875 23.2344C67.6302 22.9688 67.2578 22.8359 66.7578 22.8359C66.3255 22.8359 65.9714 22.9453 65.6953 23.1641C65.4193 23.3776 65.2812 23.651 65.2812 23.9844L63.3828 23.9844C63.3828 23.5208 63.5365 23.0885 63.8438 22.6875C64.151 22.2813 64.5677 21.9635 65.0938 21.7344C65.625 21.5052 66.2161 21.3906 66.8672 21.3906C67.8568 21.3906 68.6458 21.6406 69.2344 22.1406C69.8229 22.6354 70.125 23.3333 70.1406 24.2344V28.0469C70.1406 28.8073 70.2474 29.4141 70.4609 29.8672V30H68.5234ZM66.4375 28.6328C66.8125 28.6328 67.1641 28.5417 67.4922 28.3594C67.8255 28.1771 68.0755 27.9323 68.2422 27.625V26.0313H67.2188C66.5156 26.0313 65.987 26.1536 65.6328 26.3984C65.2786 26.6432 65.1016 26.9896 65.1016 27.4375C65.1016 27.8021 65.2214 28.0938 65.4609 28.3125C65.7057 28.526 66.0312 28.6328 66.4375 28.6328ZM74.9609 27.2813L76.6797 21.5469L78.7031 21.5469L75.3438 31.2813C74.8281 32.7031 73.9531 33.4141 72.7188 33.4141C72.4427 33.4141 72.138 33.3672 71.8047 33.2734V31.8047L72.1641 31.8281C72.6432 31.8281 73.0026 31.7396 73.2422 31.5625C73.487 31.3906 73.6797 31.099 73.8203 30.6875L74.0938 29.9609L71.125 21.5469H73.1719L74.9609 27.2813ZM87.9766 27.5234L90.8672 18.625H93.0391L88.9453 30H87.0312L82.9531 18.625H85.1172L87.9766 27.5234ZM96.1641 30H94.2656V21.5469H96.1641V30ZM94.1484 19.3516C94.1484 19.0599 94.2396 18.8177 94.4219 18.625C94.6094 18.4323 94.875 18.3359 95.2188 18.3359C95.5625 18.3359 95.8281 18.4323 96.0156 18.625C96.2031 18.8177 96.2969 19.0599 96.2969 19.3516C96.2969 19.638 96.2031 19.8776 96.0156 20.0703C95.8281 20.2578 95.5625 20.3516 95.2188 20.3516C94.875 20.3516 94.6094 20.2578 94.4219 20.0703C94.2396 19.8776 94.1484 19.638 94.1484 19.3516ZM97.8828 25.7109C97.8828 24.4089 98.1849 23.3646 98.7891 22.5781C99.3932 21.7865 100.203 21.3906 101.219 21.3906C102.115 21.3906 102.839 21.7031 103.391 22.3281V18L105.289 18V30H103.57L103.477 29.125C102.909 29.8125 102.151 30.1563 101.203 30.1563C100.214 30.1563 99.4115 29.7578 98.7969 28.9609C98.1875 28.1641 97.8828 27.0807 97.8828 25.7109ZM99.7812 25.875C99.7812 26.7344 99.9453 27.4063 100.273 27.8906C100.607 28.3698 101.078 28.6094 101.688 28.6094C102.464 28.6094 103.031 28.263 103.391 27.5703V23.9609C103.042 23.2839 102.479 22.9453 101.703 22.9453C101.089 22.9453 100.615 23.1901 100.281 23.6797C99.9479 24.1641 99.7812 24.8958 99.7812 25.875ZM110.992 30.1563C109.789 30.1563 108.812 29.7786 108.062 29.0234C107.318 28.263 106.945 27.2526 106.945 25.9922V25.7578C106.945 24.9141 107.107 24.1615 107.43 23.5C107.758 22.8333 108.216 22.3151 108.805 21.9453C109.393 21.5755 110.049 21.3906 110.773 21.3906C111.924 21.3906 112.812 21.7578 113.438 22.4922C114.068 23.2266 114.383 24.2656 114.383 25.6094V26.375H108.859C108.917 27.0729 109.148 27.625 109.555 28.0313C109.966 28.4375 110.482 28.6406 111.102 28.6406C111.971 28.6406 112.68 28.2891 113.227 27.5859L114.25 28.5625C113.911 29.0677 113.458 29.4609 112.891 29.7422C112.328 30.0182 111.695 30.1563 110.992 30.1563ZM110.766 22.9141C110.245 22.9141 109.823 23.0964 109.5 23.4609C109.182 23.8255 108.979 24.3333 108.891 24.9844H112.508V24.8438C112.466 24.2083 112.297 23.7292 112 23.4063C111.703 23.0781 111.292 22.9141 110.766 22.9141ZM115.508 25.6953C115.508 24.8672 115.672 24.1224 116 23.4609C116.328 22.7943 116.789 22.2839 117.383 21.9297C117.977 21.5703 118.659 21.3906 119.43 21.3906C120.57 21.3906 121.495 21.7578 122.203 22.4922C122.917 23.2266 123.302 24.2005 123.359 25.4141L123.367 25.8594C123.367 26.6927 123.206 27.4375 122.883 28.0938C122.565 28.75 122.107 29.2578 121.508 29.6172C120.914 29.9766 120.227 30.1563 119.445 30.1563C118.253 30.1563 117.297 29.7604 116.578 28.9688C115.865 28.1719 115.508 27.112 115.508 25.7891V25.6953ZM117.406 25.8594C117.406 26.7292 117.586 27.4115 117.945 27.9063C118.305 28.3958 118.805 28.6406 119.445 28.6406C120.086 28.6406 120.583 28.3906 120.938 27.8906C121.297 27.3906 121.477 26.6589 121.477 25.6953C121.477 24.8411 121.292 24.1641 120.922 23.6641C120.557 23.1641 120.06 22.9141 119.43 22.9141C118.81 22.9141 118.318 23.1615 117.953 23.6563C117.589 24.1458 117.406 24.8802 117.406 25.8594Z" fill="white"/>
<defs>
<filter id="filter0_b_304_836" x="-64" y="-67.5" width="184" height="184" filterUnits="userSpaceOnUse" color-interpolation-filters="sRGB">
<feFlood flood-opacity="0" result="BackgroundImageFix"/>
<feGaussianBlur in="BackgroundImageFix" stdDeviation="40"/>
<feComposite in2="SourceAlpha" operator="in" result="effect1_backgroundBlur_304_836"/>
<feBlend mode="normal" in="SourceGraphic" in2="effect1_backgroundBlur_304_836" result="shape"/>
</filter>
</defs>
</svg>
